<svg width="20" height="20" viewBox="0 0 20 20" fill="none" xmlns="http://www.w3.org/2000/svg">
  <!-- Google "G" logo simplified -->
  <path d="M18.17 10.23c0-.64-.06-1.25-.16-1.84H10v3.48h4.58a3.92 3.92 0 01-1.7 2.57v2.26h2.75c1.61-1.48 2.54-3.66 2.54-6.47z" fill="#4285F4"/>
  <path d="M10 19c2.3 0 4.22-.76 5.63-2.06l-2.75-2.13c-.76.51-1.73.81-2.88.81-2.22 0-4.1-1.5-4.77-3.51H2.36v2.2A9 9 0 0010 19z" fill="#34A853"/>
  <path d="M5.23 11.11a5.41 5.41 0 010-3.42V5.49H2.36a9 9 0 000 8.08l2.87-2.46z" fill="#FBBC05"/>
  <path d="M10 4.58c1.25 0 2.37.43 3.25 1.27l2.44-2.44C14.22 2.09 12.3 1 10 1a9 9 0 00-7.64 4.29l2.87 2.2c.67-2.01 2.55-3.51 4.77-3.51z" fill="#EA4335"/>
</svg>
